<?xml version="1.0"?>

<!-- Generator: Adobe Illustrator 16.0.0, SVG Export Plug-In . SVG Version: 6.00 Build 0) --> <svg version="1.1" id="Ebene_1" xmlns="http://www.w3.org/2000/svg" xmlns:xlink="http://www.w3.org/1999/xlink" x="0px" y="0px" width="746.263" height="173.192" viewBox="47.813 211.044 746.263 173.192" enable-background="new 47.813 211.044 746.263 173.192" xml:space="preserve">
<g> <g> <path d="M47.813,276.026h51.304v10.267H78.943v71.361H67.986v-71.361H47.813V276.026z"></path> <path d="M104.593,357.654v-81.628h10.263v30.555c3.144-3.501,8.394-6.062,14.34-6.062c12.944,0,23.204,5.59,23.204,24.487v32.648 h-10.26v-32.648c0-11.425-6.302-14.698-13.646-14.698c-7.462,0-13.64,6.067-13.64,14.698v32.648H104.593z"></path> <path d="M210.703,301.684v32.645c0,14.699-10.27,24.49-23.911,24.49c-13.637,0-23.9-9.791-23.9-24.49v-32.645h10.265v32.645 c0,8.634,6.292,14.699,13.637,14.699s13.643-6.065,13.643-14.699v-32.645H210.703z M177.469,281.161 c3.847,0,6.523,2.797,6.523,6.527c0,3.85-2.677,6.531-6.523,6.531c-3.853,0-6.534-2.682-6.534-6.531 C170.935,283.958,173.617,281.161,177.469,281.161z M196.12,281.161c3.853,0,6.534,2.797,6.534,6.527 c0,3.85-2.682,6.531-6.534,6.531c-3.848,0-6.524-2.682-6.524-6.531C189.595,283.958,192.272,281.161,196.12,281.161z"></path> <path d="M221.074,301.684h9.796v6.41h0.229c3.5-5.476,8.277-7.576,15.156-7.576h2.332v9.789h-1.511 c-9.917,0-15.746,6.067-15.746,21.229v26.119h-10.258L221.074,301.684L221.074,301.684z"></path> <path d="M264.567,283.024c3.96,0,6.176,3.032,6.176,6.181s-2.216,6.181-6.176,6.181c-3.968,0-6.181-3.032-6.181-6.181 C258.386,286.057,260.599,283.024,264.567,283.024z M259.437,357.654v-55.971h10.258v55.971H259.437z"></path> <path d="M286.01,357.654v-32.648c0-14.698,10.27-24.487,23.91-24.487c13.639,0,23.907,9.789,23.907,24.487v32.648h-10.269v-32.648 c0-8.631-6.292-14.698-13.639-14.698c-7.344,0-13.641,6.067-13.641,14.698v32.648H286.01z"></path> <path d="M384.892,355.086c-3.849,2.098-9.328,3.731-13.179,3.731c-16.323,0-28.914-12.127-28.914-28.443 c0-16.794,11.427-29.856,28.914-29.856c17.031,0,27.522,13.756,27.522,27.75v24.953c0,20.992-12.825,31.016-29.265,31.016 c-6.303,0-12.484-1.283-18.431-3.264l2.453-9.332c5.128,1.406,10.258,2.801,15.505,2.801c9.212,0,19.475-4.082,19.475-17.723 v-26.117c0-12.595-8.165-20.295-17.722-20.295c-12.244,0-18.19,9.688-18.19,20.64c0,10.966,8.162,18.081,18.769,18.081 c4.666,0,9.094-2.217,13.062-4.551V355.086L384.892,355.086z"></path> <path d="M425.705,339.234l-4.202-8.168l27.636-15.394c-3.504-3.493-6.412-5.366-12.705-5.366 c-10.617,0-18.314,7.932-18.314,19.363c0,11.426,7.697,19.356,18.314,19.356c12.127,0,16.668-7.227,18.766-17.492l10.383,1.285 c-1.17,14.805-13.061,25.998-29.147,25.998c-15.515,0-29.042-11.895-29.042-29.147c0-17.262,13.526-29.152,29.042-29.152 c13.055,0,21.797,6.881,27.047,17.721L425.705,339.234z"></path> <path d="M473.973,357.654v-32.648c0-14.698,10.26-24.487,23.904-24.487c13.643,0,23.901,9.789,23.901,24.487v32.648h-10.26 v-32.648c0-8.631-6.299-14.698-13.644-14.698c-7.348,0-13.645,6.067-13.645,14.698v32.648H473.973z"></path> </g> <g> <path d="M380.024,226.536h-13.778v-4.979h33.542v4.979h-13.849v40.33h-5.915V226.536L380.024,226.536z"></path> <path d="M410.675,221.558v18.958h21.914v-18.958h5.909v45.308h-5.909v-21.242h-21.914v21.242h-5.85v-45.308H410.675z"></path> <path d="M455.975,252.615l-4.705,14.252h-6.051l15.393-45.309h7.058l15.467,45.309h-6.254l-4.843-14.252H455.975z M470.83,248.045 l-4.436-13.042c-1.008-2.958-1.68-5.644-2.355-8.268h-0.135c-0.67,2.688-1.408,5.443-2.281,8.2l-4.438,13.109H470.83z"></path> <path d="M489.783,221.558h5.845v21.848h0.207c1.206-1.745,2.413-3.36,3.562-4.841l13.844-17.007h7.267l-16.404,19.224 l17.678,26.085h-6.928l-14.92-22.248l-4.305,4.973v17.275h-5.845V221.558z"></path> </g> <g> <radialGradient id="SVGID_1_" cx="602.1882" cy="260.9583" r="141.2108" gradientTransform="matrix(1 0 0 -0.9993 -0.0552 594.8153)" gradientUnits="userSpaceOnUse"> <stop offset="0.1659" style="stop-color:#1D436F"></stop> <stop offset="0.245" style="stop-color:#1A606C"></stop> <stop offset="0.4739" style="stop-color:#3AAA35"></stop> <stop offset="0.4979" style="stop-color:#47AC35"></stop> <stop offset="0.7182" style="stop-color:#93C12D"></stop> <stop offset="0.8246" style="stop-color:#AAC929"></stop> </radialGradient> <polygon fill="url(#SVGID_1_)" points="594.229,217.811 594.229,211.044 588.126,211.044 588.126,217.797 581.365,217.797 581.365,223.896 588.126,223.896 588.126,230.66 594.229,230.66 594.229,223.905 600.982,223.905 600.982,217.811 "></polygon> <radialGradient id="SVGID_2_" cx="602.1873" cy="260.9583" r="141.2142" gradientTransform="matrix(1 0 0 -0.9993 -0.0552 594.8153)" gradientUnits="userSpaceOnUse"> <stop offset="0.1659" style="stop-color:#1D436F"></stop> <stop offset="0.245" style="stop-color:#1A606C"></stop> <stop offset="0.4739" style="stop-color:#3AAA35"></stop> <stop offset="0.4979" style="stop-color:#47AC35"></stop> <stop offset="0.7182" style="stop-color:#93C12D"></stop> <stop offset="0.8246" style="stop-color:#AAC929"></stop> </radialGradient> <polygon fill="url(#SVGID_2_)" points="619.955,217.811 619.955,211.044 613.855,211.044 613.855,217.797 607.093,217.797 607.093,223.896 613.852,223.896 613.852,230.66 619.955,230.66 619.955,223.905 626.718,223.905 626.718,217.811 "></polygon> <radialGradient id="SVGID_3_" cx="602.1707" cy="260.9583" r="141.2236" gradientTransform="matrix(1 0 0 -0.9993 -0.0552 594.8153)" gradientUnits="userSpaceOnUse"> <stop offset="0.1659" style="stop-color:#1D436F"></stop> <stop offset="0.245" style="stop-color:#1A606C"></stop> <stop offset="0.4739" style="stop-color:#3AAA35"></stop> <stop offset="0.4979" style="stop-color:#47AC35"></stop> <stop offset="0.7182" style="stop-color:#93C12D"></stop> <stop offset="0.8246" style="stop-color:#AAC929"></stop> </radialGradient> <polygon fill="url(#SVGID_3_)" points="645.682,217.811 645.682,211.044 639.58,211.044 639.58,217.797 632.814,217.797 632.814,223.896 639.58,223.896 639.58,230.66 645.678,230.66 645.678,223.905 652.439,223.905 652.439,217.811 "></polygon> <g> <radialGradient id="SVGID_4_" cx="602.2029" cy="260.9563" r="141.211" gradientTransform="matrix(1 0 0 -0.9993 -0.0552 594.8153)" gradientUnits="userSpaceOnUse"> <stop offset="0.1659" style="stop-color:#1D436F"></stop> <stop offset="0.245" style="stop-color:#1A606C"></stop> <stop offset="0.4739" style="stop-color:#3AAA35"></stop> <stop offset="0.4979" style="stop-color:#47AC35"></stop> <stop offset="0.7182" style="stop-color:#93C12D"></stop> <stop offset="0.8246" style="stop-color:#AAC929"></stop> </radialGradient> <polygon fill="url(#SVGID_4_)" points="581.382,237.438 581.382,230.675 575.279,230.675 575.279,237.428 568.518,237.428 568.518,243.524 575.273,243.524 575.273,250.291 581.376,250.291 581.376,243.536 588.141,243.536 588.141,237.438 "></polygon> <radialGradient id="SVGID_5_" cx="602.1931" cy="260.9563" r="141.2089" gradientTransform="matrix(1 0 0 -0.9993 -0.0552 594.8153)" gradientUnits="userSpaceOnUse"> <stop offset="0.1659" style="stop-color:#1D436F"></stop> <stop offset="0.245" style="stop-color:#1A606C"></stop> <stop offset="0.4739" style="stop-color:#3AAA35"></stop> <stop offset="0.4979" style="stop-color:#47AC35"></stop> <stop offset="0.7182" style="stop-color:#93C12D"></stop> <stop offset="0.8246" style="stop-color:#AAC929"></stop> </radialGradient> <polygon fill="url(#SVGID_5_)" points="607.115,237.438 607.115,230.675 601.012,230.675 601.012,237.428 594.259,237.428 594.259,243.524 601.009,243.524 601.009,250.291 607.115,250.291 607.115,243.536 613.869,243.536 613.869,237.438 "></polygon> <radialGradient id="SVGID_6_" cx="602.1853" cy="260.9563" r="141.2158" gradientTransform="matrix(1 0 0 -0.9993 -0.0552 594.8153)" gradientUnits="userSpaceOnUse"> <stop offset="0.1659" style="stop-color:#1D436F"></stop> <stop offset="0.245" style="stop-color:#1A606C"></stop> <stop offset="0.4739" style="stop-color:#3AAA35"></stop> <stop offset="0.4979" style="stop-color:#47AC35"></stop> <stop offset="0.7182" style="stop-color:#93C12D"></stop> <stop offset="0.8246" style="stop-color:#AAC929"></stop> </radialGradient> <polygon fill="url(#SVGID_6_)" points="632.846,237.438 632.846,230.675 626.748,230.675 626.748,237.428 619.988,237.428 619.988,243.524 626.748,243.524 626.748,250.291 632.846,250.291 632.846,243.536 639.609,243.536 639.609,237.438 "></polygon> <radialGradient id="SVGID_7_" cx="602.2078" cy="260.9563" r="141.1955" gradientTransform="matrix(1 0 0 -0.9993 -0.0552 594.8153)" gradientUnits="userSpaceOnUse"> <stop offset="0.1659" style="stop-color:#1D436F"></stop> <stop offset="0.245" style="stop-color:#1A606C"></stop> <stop offset="0.4739" style="stop-color:#3AAA35"></stop> <stop offset="0.4979" style="stop-color:#47AC35"></stop> <stop offset="0.7182" style="stop-color:#93C12D"></stop> <stop offset="0.8246" style="stop-color:#AAC929"></stop> </radialGradient> <polygon fill="url(#SVGID_7_)" points="658.587,237.438 658.587,230.675 652.486,230.675 652.486,237.428 645.73,237.428 645.73,243.524 652.486,243.524 652.486,250.291 658.587,250.291 658.587,243.536 665.341,243.536 665.341,237.438 "></polygon> </g> <radialGradient id="SVGID_8_" cx="602.1902" cy="260.9231" r="141.2677" gradientTransform="matrix(1 0 0 -0.9993 -0.0552 594.8153)" gradientUnits="userSpaceOnUse"> <stop offset="0.1659" style="stop-color:#1D436F"></stop> <stop offset="0.245" style="stop-color:#1A606C"></stop> <stop offset="0.4739" style="stop-color:#3AAA35"></stop> <stop offset="0.4979" style="stop-color:#47AC35"></stop> <stop offset="0.7182" style="stop-color:#93C12D"></stop> <stop offset="0.8246" style="stop-color:#AAC929"></stop> </radialGradient> <polygon fill="url(#SVGID_8_)" points="594.242,257.069 594.242,250.303 588.141,250.303 588.141,257.059 581.376,257.059 581.376,263.157 588.141,263.157 588.141,269.925 594.242,269.925 594.242,263.17 600.994,263.17 600.994,257.069 "></polygon> <radialGradient id="SVGID_9_" cx="602.1912" cy="260.9231" r="141.262" gradientTransform="matrix(1 0 0 -0.9993 -0.0552 594.8153)" gradientUnits="userSpaceOnUse"> <stop offset="0.1659" style="stop-color:#1D436F"></stop> <stop offset="0.245" style="stop-color:#1A606C"></stop> <stop offset="0.4739" style="stop-color:#3AAA35"></stop> <stop offset="0.4979" style="stop-color:#47AC35"></stop> <stop offset="0.7182" style="stop-color:#93C12D"></stop> <stop offset="0.8246" style="stop-color:#AAC929"></stop> </radialGradient> <polygon fill="url(#SVGID_9_)" points="619.982,257.069 619.982,250.303 613.882,250.303 613.882,257.059 607.121,257.059 607.121,263.157 613.873,263.157 613.873,269.925 619.982,269.925 619.982,263.17 626.738,263.17 626.738,257.069 "></polygon> <radialGradient id="SVGID_10_" cx="602.1863" cy="260.9231" r="141.2531" gradientTransform="matrix(1 0 0 -0.9993 -0.0552 594.8153)" gradientUnits="userSpaceOnUse"> <stop offset="0.1659" style="stop-color:#1D436F"></stop> <stop offset="0.245" style="stop-color:#1A606C"></stop> <stop offset="0.4739" style="stop-color:#3AAA35"></stop> <stop offset="0.4979" style="stop-color:#47AC35"></stop> <stop offset="0.7182" style="stop-color:#93C12D"></stop> <stop offset="0.8246" style="stop-color:#AAC929"></stop> </radialGradient> <polygon fill="url(#SVGID_10_)" points="645.725,257.069 645.725,250.303 639.621,250.303 639.621,257.059 632.861,257.059 632.861,263.157 639.621,263.157 639.621,269.925 645.725,269.925 645.725,263.17 652.479,263.17 652.479,257.069 "></polygon> <radialGradient id="SVGID_11_" cx="602.2" cy="260.9231" r="141.23" gradientTransform="matrix(1 0 0 -0.9993 -0.0552 594.8153)" gradientUnits="userSpaceOnUse"> <stop offset="0.1659" style="stop-color:#1D436F"></stop> <stop offset="0.245" style="stop-color:#1A606C"></stop> <stop offset="0.4739" style="stop-color:#3AAA35"></stop> <stop offset="0.4979" style="stop-color:#47AC35"></stop> <stop offset="0.7182" style="stop-color:#93C12D"></stop> <stop offset="0.8246" style="stop-color:#AAC929"></stop> </radialGradient> <polygon fill="url(#SVGID_11_)" points="671.462,257.069 671.462,250.303 665.359,250.303 665.359,257.059 658.609,257.059 658.609,263.157 665.359,263.157 665.359,269.925 671.462,269.925 671.462,263.17 678.223,263.17 678.223,257.069 "></polygon> <radialGradient id="SVGID_12_" cx="602.1833" cy="260.9231" r="141.2435" gradientTransform="matrix(1 0 0 -0.9993 -0.0552 594.8153)" gradientUnits="userSpaceOnUse"> <stop offset="0.1659" style="stop-color:#1D436F"></stop> <stop offset="0.245" style="stop-color:#1A606C"></stop> <stop offset="0.4739" style="stop-color:#3AAA35"></stop> <stop offset="0.4979" style="stop-color:#47AC35"></stop> <stop offset="0.7182" style="stop-color:#93C12D"></stop> <stop offset="0.8246" style="stop-color:#AAC929"></stop> </radialGradient> <polygon fill="url(#SVGID_12_)" points="697.207,257.069 697.207,250.303 691.109,250.303 691.109,257.059 684.348,257.059 684.348,263.157 691.105,263.157 691.105,269.925 697.207,269.925 697.207,263.17 703.968,263.17 703.968,257.069 "></polygon> <g> <radialGradient id="SVGID_13_" cx="602.2029" cy="260.9553" r="141.2137" gradientTransform="matrix(1 0 0 -0.9993 -0.0552 594.8153)" gradientUnits="userSpaceOnUse"> <stop offset="0.1659" style="stop-color:#1D436F"></stop> <stop offset="0.245" style="stop-color:#1A606C"></stop> <stop offset="0.4739" style="stop-color:#3AAA35"></stop> <stop offset="0.4979" style="stop-color:#47AC35"></stop> <stop offset="0.7182" style="stop-color:#93C12D"></stop> <stop offset="0.8246" style="stop-color:#AAC929"></stop> </radialGradient> <polygon fill="url(#SVGID_13_)" points="581.382,276.7 581.382,269.934 575.279,269.934 575.279,276.69 568.518,276.69 568.518,282.786 575.273,282.786 575.273,289.547 581.376,289.547 581.376,282.798 588.141,282.798 588.141,276.7 "></polygon> <radialGradient id="SVGID_14_" cx="602.1951" cy="260.9553" r="141.2102" gradientTransform="matrix(1 0 0 -0.9993 -0.0552 594.8153)" gradientUnits="userSpaceOnUse"> <stop offset="0.1659" style="stop-color:#1D436F"></stop> <stop offset="0.245" style="stop-color:#1A606C"></stop> <stop offset="0.4739" style="stop-color:#3AAA35"></stop> <stop offset="0.4979" style="stop-color:#47AC35"></stop> <stop offset="0.7182" style="stop-color:#93C12D"></stop> <stop offset="0.8246" style="stop-color:#AAC929"></stop> </radialGradient> <polygon fill="url(#SVGID_14_)" points="607.121,276.7 607.121,269.934 601.014,269.934 601.014,276.69 594.264,276.69 594.264,282.786 601.012,282.786 601.012,289.547 607.115,289.547 607.115,282.798 613.882,282.798 613.882,276.7 "></polygon> <radialGradient id="SVGID_15_" cx="602.1902" cy="260.9553" r="141.2183" gradientTransform="matrix(1 0 0 -0.9993 -0.0552 594.8153)" gradientUnits="userSpaceOnUse"> <stop offset="0.1659" style="stop-color:#1D436F"></stop> <stop offset="0.245" style="stop-color:#1A606C"></stop> <stop offset="0.4739" style="stop-color:#3AAA35"></stop> <stop offset="0.4979" style="stop-color:#47AC35"></stop> <stop offset="0.7182" style="stop-color:#93C12D"></stop> <stop offset="0.8246" style="stop-color:#AAC929"></stop> </radialGradient> <polygon fill="url(#SVGID_15_)" points="632.863,276.7 632.863,269.934 626.76,269.934 626.76,276.69 620.003,276.69 620.003,282.786 626.76,282.786 626.76,289.547 632.861,289.547 632.861,282.798 639.621,282.798 639.621,276.7 "></polygon> <radialGradient id="SVGID_16_" cx="602.1843" cy="260.9553" r="141.2208" gradientTransform="matrix(1 0 0 -0.9993 -0.0552 594.8153)" gradientUnits="userSpaceOnUse"> <stop offset="0.1659" style="stop-color:#1D436F"></stop> <stop offset="0.245" style="stop-color:#1A606C"></stop> <stop offset="0.4739" style="stop-color:#3AAA35"></stop> <stop offset="0.4979" style="stop-color:#47AC35"></stop> <stop offset="0.7182" style="stop-color:#93C12D"></stop> <stop offset="0.8246" style="stop-color:#AAC929"></stop> </radialGradient> <polygon fill="url(#SVGID_16_)" points="658.609,276.7 658.609,269.934 652.505,269.934 652.505,276.69 645.742,276.69 645.742,282.786 652.505,282.786 652.505,289.547 658.609,289.547 658.609,282.798 665.359,282.798 665.359,276.7 "></polygon> <radialGradient id="SVGID_17_" cx="602.1892" cy="260.9553" r="141.2187" gradientTransform="matrix(1 0 0 -0.9993 -0.0552 594.8153)" gradientUnits="userSpaceOnUse"> <stop offset="0.1659" style="stop-color:#1D436F"></stop> <stop offset="0.245" style="stop-color:#1A606C"></stop> <stop offset="0.4739" style="stop-color:#3AAA35"></stop> <stop offset="0.4979" style="stop-color:#47AC35"></stop> <stop offset="0.7182" style="stop-color:#93C12D"></stop> <stop offset="0.8246" style="stop-color:#AAC929"></stop> </radialGradient> <polygon fill="url(#SVGID_17_)" points="684.357,276.7 684.357,269.934 678.253,269.934 678.253,276.69 671.488,276.69 671.488,282.786 678.253,282.786 678.253,289.547 684.348,289.547 684.348,282.798 691.105,282.798 691.105,276.7 "></polygon> <radialGradient id="SVGID_18_" cx="602.1472" cy="260.9553" r="141.2702" gradientTransform="matrix(1 0 0 -0.9993 -0.0552 594.8153)" gradientUnits="userSpaceOnUse"> <stop offset="0.1659" style="stop-color:#1D436F"></stop> <stop offset="0.245" style="stop-color:#1A606C"></stop> <stop offset="0.4739" style="stop-color:#3AAA35"></stop> <stop offset="0.4979" style="stop-color:#47AC35"></stop> <stop offset="0.7182" style="stop-color:#93C12D"></stop> <stop offset="0.8246" style="stop-color:#AAC929"></stop> </radialGradient> <polygon fill="url(#SVGID_18_)" points="710.093,276.7 710.093,269.934 703.99,269.934 703.99,276.69 697.23,276.69 697.23,282.786 703.99,282.786 703.99,289.547 710.093,289.547 710.093,282.798 716.854,282.798 716.854,276.7 "></polygon> <radialGradient id="SVGID_19_" cx="602.1609" cy="260.9553" r="141.25" gradientTransform="matrix(1 0 0 -0.9993 -0.0552 594.8153)" gradientUnits="userSpaceOnUse"> <stop offset="0.1659" style="stop-color:#1D436F"></stop> <stop offset="0.245" style="stop-color:#1A606C"></stop> <stop offset="0.4739" style="stop-color:#3AAA35"></stop> <stop offset="0.4979" style="stop-color:#47AC35"></stop> <stop offset="0.7182" style="stop-color:#93C12D"></stop> <stop offset="0.8246" style="stop-color:#AAC929"></stop> </radialGradient> <polygon fill="url(#SVGID_19_)" points="735.843,276.7 735.843,269.934 729.736,269.934 729.736,276.69 722.973,276.69 722.973,282.786 729.736,282.786 729.736,289.547 735.835,289.547 735.835,282.798 742.594,282.798 742.594,276.7 "></polygon> <radialGradient id="SVGID_20_" cx="602.2517" cy="260.9553" r="141.1714" gradientTransform="matrix(1 0 0 -0.9993 -0.0552 594.8153)" gradientUnits="userSpaceOnUse"> <stop offset="0.1659" style="stop-color:#1D436F"></stop> <stop offset="0.245" style="stop-color:#1A606C"></stop> <stop offset="0.4739" style="stop-color:#3AAA35"></stop> <stop offset="0.4979" style="stop-color:#47AC35"></stop> <stop offset="0.7182" style="stop-color:#93C12D"></stop> <stop offset="0.8246" style="stop-color:#AAC929"></stop> </radialGradient> <polygon fill="url(#SVGID_20_)" points="761.582,276.7 761.582,269.934 755.473,269.934 755.473,276.69 748.725,276.69 748.725,282.786 755.473,282.786 755.473,289.547 761.576,289.547 761.576,282.798 768.335,282.798 768.335,276.7 "></polygon> <radialGradient id="SVGID_21_" cx="602.2781" cy="260.9553" r="141.1581" gradientTransform="matrix(1 0 0 -0.9993 -0.0552 594.8153)" gradientUnits="userSpaceOnUse"> <stop offset="0.1659" style="stop-color:#1D436F"></stop> <stop offset="0.245" style="stop-color:#1A606C"></stop> <stop offset="0.4739" style="stop-color:#3AAA35"></stop> <stop offset="0.4979" style="stop-color:#47AC35"></stop> <stop offset="0.7182" style="stop-color:#93C12D"></stop> <stop offset="0.8246" style="stop-color:#AAC929"></stop> </radialGradient> <polygon fill="url(#SVGID_21_)" points="787.324,276.7 787.324,269.934 781.216,269.934 781.216,276.69 774.468,276.69 774.468,282.786 781.216,282.786 781.216,289.547 787.322,289.547 787.322,282.798 794.076,282.798 794.076,276.7 "></polygon> </g> <g> <radialGradient id="SVGID_22_" cx="602.1921" cy="260.9504" r="141.2186" gradientTransform="matrix(1 0 0 -0.9993 -0.0552 594.8153)" gradientUnits="userSpaceOnUse"> <stop offset="0.1659" style="stop-color:#1D436F"></stop> <stop offset="0.245" style="stop-color:#1A606C"></stop> <stop offset="0.4739" style="stop-color:#3AAA35"></stop> <stop offset="0.4979" style="stop-color:#47AC35"></stop> <stop offset="0.7182" style="stop-color:#93C12D"></stop> <stop offset="0.8246" style="stop-color:#AAC929"></stop> </radialGradient> <polygon fill="url(#SVGID_22_)" points="568.469,296.329 568.469,289.564 562.363,289.564 562.363,296.321 555.602,296.321 555.602,302.417 562.357,302.417 562.357,309.18 568.464,309.18 568.464,302.427 575.219,302.427 575.219,296.329 "></polygon> <radialGradient id="SVGID_23_" cx="602.1824" cy="260.9504" r="141.2142" gradientTransform="matrix(1 0 0 -0.9993 -0.0552 594.8153)" gradientUnits="userSpaceOnUse"> <stop offset="0.1659" style="stop-color:#1D436F"></stop> <stop offset="0.245" style="stop-color:#1A606C"></stop> <stop offset="0.4739" style="stop-color:#3AAA35"></stop> <stop offset="0.4979" style="stop-color:#47AC35"></stop> <stop offset="0.7182" style="stop-color:#93C12D"></stop> <stop offset="0.8246" style="stop-color:#AAC929"></stop> </radialGradient> <polygon fill="url(#SVGID_23_)" points="594.207,296.329 594.207,289.564 588.102,289.564 588.102,296.321 581.344,296.321 581.344,302.417 588.102,302.417 588.102,309.18 594.203,309.18 594.203,302.427 600.955,302.427 600.955,296.329 "></polygon> <radialGradient id="SVGID_24_" cx="602.1951" cy="260.9504" r="141.2065" gradientTransform="matrix(1 0 0 -0.9993 -0.0552 594.8153)" gradientUnits="userSpaceOnUse"> <stop offset="0.1659" style="stop-color:#1D436F"></stop> <stop offset="0.245" style="stop-color:#1A606C"></stop> <stop offset="0.4739" style="stop-color:#3AAA35"></stop> <stop offset="0.4979" style="stop-color:#47AC35"></stop> <stop offset="0.7182" style="stop-color:#93C12D"></stop> <stop offset="0.8246" style="stop-color:#AAC929"></stop> </radialGradient> <polygon fill="url(#SVGID_24_)" points="619.951,296.329 619.951,289.564 613.844,289.564 613.844,296.321 607.091,296.321 607.091,302.417 613.844,302.417 613.844,309.18 619.951,309.18 619.951,302.427 626.705,302.427 626.705,296.329 "></polygon> <radialGradient id="SVGID_25_" cx="602.2039" cy="260.9504" r="141.2006" gradientTransform="matrix(1 0 0 -0.9993 -0.0552 594.8153)" gradientUnits="userSpaceOnUse"> <stop offset="0.1659" style="stop-color:#1D436F"></stop> <stop offset="0.245" style="stop-color:#1A606C"></stop> <stop offset="0.4739" style="stop-color:#3AAA35"></stop> <stop offset="0.4979" style="stop-color:#47AC35"></stop> <stop offset="0.7182" style="stop-color:#93C12D"></stop> <stop offset="0.8246" style="stop-color:#AAC929"></stop> </radialGradient> <polygon fill="url(#SVGID_25_)" points="645.689,296.329 645.689,289.564 639.587,289.564 639.587,296.321 632.839,296.321 632.839,302.417 639.587,302.417 639.587,309.18 645.689,309.18 645.689,302.427 652.453,302.427 652.453,296.329 "></polygon> <radialGradient id="SVGID_26_" cx="602.2136" cy="260.9504" r="141.1824" gradientTransform="matrix(1 0 0 -0.9993 -0.0552 594.8153)" gradientUnits="userSpaceOnUse"> <stop offset="0.1659" style="stop-color:#1D436F"></stop> <stop offset="0.245" style="stop-color:#1A606C"></stop> <stop offset="0.4739" style="stop-color:#3AAA35"></stop> <stop offset="0.4979" style="stop-color:#47AC35"></stop> <stop offset="0.7182" style="stop-color:#93C12D"></stop> <stop offset="0.8246" style="stop-color:#AAC929"></stop> </radialGradient> <polygon fill="url(#SVGID_26_)" points="671.439,296.329 671.439,289.564 665.332,289.564 665.332,296.321 658.582,296.321 658.582,302.417 665.332,302.417 665.332,309.18 671.43,309.18 671.43,302.427 678.193,302.427 678.193,296.329 "></polygon> <radialGradient id="SVGID_27_" cx="602.1697" cy="260.9504" r="141.249" gradientTransform="matrix(1 0 0 -0.9993 -0.0552 594.8153)" gradientUnits="userSpaceOnUse"> <stop offset="0.1659" style="stop-color:#1D436F"></stop> <stop offset="0.245" style="stop-color:#1A606C"></stop> <stop offset="0.4739" style="stop-color:#3AAA35"></stop> <stop offset="0.4979" style="stop-color:#47AC35"></stop> <stop offset="0.7182" style="stop-color:#93C12D"></stop> <stop offset="0.8246" style="stop-color:#AAC929"></stop> </radialGradient> <polygon fill="url(#SVGID_27_)" points="697.177,296.329 697.177,289.564 691.074,289.564 691.074,296.321 684.316,296.321 684.316,302.417 691.074,302.417 691.074,309.18 697.177,309.18 697.177,302.427 703.936,302.427 703.936,296.329 "></polygon> <radialGradient id="SVGID_28_" cx="602.1814" cy="260.9504" r="141.2319" gradientTransform="matrix(1 0 0 -0.9993 -0.0552 594.8153)" gradientUnits="userSpaceOnUse"> <stop offset="0.1659" style="stop-color:#1D436F"></stop> <stop offset="0.245" style="stop-color:#1A606C"></stop> <stop offset="0.4739" style="stop-color:#3AAA35"></stop> <stop offset="0.4979" style="stop-color:#47AC35"></stop> <stop offset="0.7182" style="stop-color:#93C12D"></stop> <stop offset="0.8246" style="stop-color:#AAC929"></stop> </radialGradient> <polygon fill="url(#SVGID_28_)" points="722.925,296.329 722.925,289.564 716.824,289.564 716.824,296.321 710.062,296.321 710.062,302.417 716.818,302.417 716.818,309.18 722.919,309.18 722.919,302.427 729.68,302.427 729.68,296.329 "></polygon> <radialGradient id="SVGID_29_" cx="602.2322" cy="260.9504" r="141.1784" gradientTransform="matrix(1 0 0 -0.9993 -0.0552 594.8153)" gradientUnits="userSpaceOnUse"> <stop offset="0.1659" style="stop-color:#1D436F"></stop> <stop offset="0.245" style="stop-color:#1A606C"></stop> <stop offset="0.4739" style="stop-color:#3AAA35"></stop> <stop offset="0.4979" style="stop-color:#47AC35"></stop> <stop offset="0.7182" style="stop-color:#93C12D"></stop> <stop offset="0.8246" style="stop-color:#AAC929"></stop> </radialGradient> <polygon fill="url(#SVGID_29_)" points="748.669,296.329 748.669,289.564 742.564,289.564 742.564,296.321 735.805,296.321 735.805,302.417 742.564,302.417 742.564,309.18 748.669,309.18 748.669,302.427 755.417,302.427 755.417,296.329 "></polygon> <radialGradient id="SVGID_30_" cx="602.1101" cy="260.9504" r="141.2886" gradientTransform="matrix(1 0 0 -0.9993 -0.0552 594.8153)" gradientUnits="userSpaceOnUse"> <stop offset="0.1659" style="stop-color:#1D436F"></stop> <stop offset="0.245" style="stop-color:#1A606C"></stop> <stop offset="0.4739" style="stop-color:#3AAA35"></stop> <stop offset="0.4979" style="stop-color:#47AC35"></stop> <stop offset="0.7182" style="stop-color:#93C12D"></stop> <stop offset="0.8246" style="stop-color:#AAC929"></stop> </radialGradient> <polygon fill="url(#SVGID_30_)" points="774.412,296.329 774.412,289.564 768.311,289.564 768.311,296.321 761.546,296.321 761.546,302.417 768.311,302.417 768.311,309.18 774.408,309.18 774.408,302.427 781.173,302.427 781.173,296.329 "></polygon> </g> <g> <radialGradient id="SVGID_31_" cx="602.1892" cy="260.9514" r="141.2225" gradientTransform="matrix(1 0 0 -0.9993 -0.0552 594.8153)" gradientUnits="userSpaceOnUse"> <stop offset="0.1659" style="stop-color:#1D436F"></stop> <stop offset="0.245" style="stop-color:#1A606C"></stop> <stop offset="0.4739" style="stop-color:#3AAA35"></stop> <stop offset="0.4979" style="stop-color:#47AC35"></stop> <stop offset="0.7182" style="stop-color:#93C12D"></stop> <stop offset="0.8246" style="stop-color:#AAC929"></stop> </radialGradient> <polygon fill="url(#SVGID_31_)" points="581.35,315.965 581.35,309.195 575.244,309.195 575.244,315.943 568.488,315.943 568.488,322.048 575.244,322.048 575.244,328.809 581.344,328.809 581.344,322.057 588.105,322.057 588.105,315.965 "></polygon> <radialGradient id="SVGID_32_" cx="602.1921" cy="260.9514" r="141.1726" gradientTransform="matrix(1 0 0 -0.9993 -0.0552 594.8153)" gradientUnits="userSpaceOnUse"> <stop offset="0.1659" style="stop-color:#1D436F"></stop> <stop offset="0.245" style="stop-color:#1A606C"></stop> <stop offset="0.4739" style="stop-color:#3AAA35"></stop> <stop offset="0.4979" style="stop-color:#47AC35"></stop> <stop offset="0.7182" style="stop-color:#93C12D"></stop> <stop offset="0.8246" style="stop-color:#AAC929"></stop> </radialGradient> <polygon fill="url(#SVGID_32_)" points="607.091,315.965 607.091,309.195 600.984,309.195 600.984,315.943 594.234,315.943 594.234,322.048 600.984,322.048 600.984,328.809 607.091,328.809 607.091,322.057 613.844,322.057 613.844,315.965 "></polygon> <radialGradient id="SVGID_33_" cx="602.1941" cy="260.9514" r="141.206" gradientTransform="matrix(1 0 0 -0.9993 -0.0552 594.8153)" gradientUnits="userSpaceOnUse"> <stop offset="0.1659" style="stop-color:#1D436F"></stop> <stop offset="0.245" style="stop-color:#1A606C"></stop> <stop offset="0.4739" style="stop-color:#3AAA35"></stop> <stop offset="0.4979" style="stop-color:#47AC35"></stop> <stop offset="0.7182" style="stop-color:#93C12D"></stop> <stop offset="0.8246" style="stop-color:#AAC929"></stop> </radialGradient> <polygon fill="url(#SVGID_33_)" points="632.839,315.965 632.839,309.195 626.725,309.195 626.725,315.943 619.971,315.943 619.971,322.048 626.725,322.048 626.725,328.809 632.824,328.809 632.824,322.057 639.587,322.057 639.587,315.965 "></polygon> <radialGradient id="SVGID_34_" cx="602.1814" cy="260.9514" r="141.2355" gradientTransform="matrix(1 0 0 -0.9993 -0.0552 594.8153)" gradientUnits="userSpaceOnUse"> <stop offset="0.1659" style="stop-color:#1D436F"></stop> <stop offset="0.245" style="stop-color:#1A606C"></stop> <stop offset="0.4739" style="stop-color:#3AAA35"></stop> <stop offset="0.4979" style="stop-color:#47AC35"></stop> <stop offset="0.7182" style="stop-color:#93C12D"></stop> <stop offset="0.8246" style="stop-color:#AAC929"></stop> </radialGradient> <polygon fill="url(#SVGID_34_)" points="658.574,315.965 658.574,309.195 652.466,309.195 652.466,315.943 645.707,315.943 645.707,322.048 652.466,322.048 652.466,328.809 658.568,328.809 658.568,322.057 665.326,322.057 665.326,315.965 "></polygon> <radialGradient id="SVGID_35_" cx="602.1638" cy="260.9514" r="141.266" gradientTransform="matrix(1 0 0 -0.9993 -0.0552 594.8153)" gradientUnits="userSpaceOnUse"> <stop offset="0.1659" style="stop-color:#1D436F"></stop> <stop offset="0.245" style="stop-color:#1A606C"></stop> <stop offset="0.4739" style="stop-color:#3AAA35"></stop> <stop offset="0.4979" style="stop-color:#47AC35"></stop> <stop offset="0.7182" style="stop-color:#93C12D"></stop> <stop offset="0.8246" style="stop-color:#AAC929"></stop> </radialGradient> <polygon fill="url(#SVGID_35_)" points="684.314,315.965 684.314,309.195 678.216,309.195 678.216,315.943 671.447,315.943 671.447,322.048 678.21,322.048 678.21,328.809 684.314,328.809 684.314,322.057 691.07,322.057 691.07,315.965 "></polygon> <radialGradient id="SVGID_36_" cx="602.2" cy="260.9514" r="141.2057" gradientTransform="matrix(1 0 0 -0.9993 -0.0552 594.8153)" gradientUnits="userSpaceOnUse"> <stop offset="0.1659" style="stop-color:#1D436F"></stop> <stop offset="0.245" style="stop-color:#1A606C"></stop> <stop offset="0.4739" style="stop-color:#3AAA35"></stop> <stop offset="0.4979" style="stop-color:#47AC35"></stop> <stop offset="0.7182" style="stop-color:#93C12D"></stop> <stop offset="0.8246" style="stop-color:#AAC929"></stop> </radialGradient> <polygon fill="url(#SVGID_36_)" points="710.055,315.965 710.055,309.195 703.949,309.195 703.949,315.943 697.191,315.943 697.191,322.048 703.943,322.048 703.943,328.809 710.055,328.809 710.055,322.057 716.805,322.057 716.805,315.965 "></polygon> <radialGradient id="SVGID_37_" cx="602.1892" cy="260.9514" r="141.219" gradientTransform="matrix(1 0 0 -0.9993 -0.0552 594.8153)" gradientUnits="userSpaceOnUse"> <stop offset="0.1659" style="stop-color:#1D436F"></stop> <stop offset="0.245" style="stop-color:#1A606C"></stop> <stop offset="0.4739" style="stop-color:#3AAA35"></stop> <stop offset="0.4979" style="stop-color:#47AC35"></stop> <stop offset="0.7182" style="stop-color:#93C12D"></stop> <stop offset="0.8246" style="stop-color:#AAC929"></stop> </radialGradient> <polygon fill="url(#SVGID_37_)" points="735.794,315.965 735.794,309.195 729.686,309.195 729.686,315.943 722.928,315.943 722.928,322.048 729.686,322.048 729.686,328.809 735.794,328.809 735.794,322.057 742.546,322.057 742.546,315.965 "></polygon> </g> <g> <radialGradient id="SVGID_38_" cx="602.1951" cy="260.9475" r="141.2111" gradientTransform="matrix(1 0 0 -0.9993 -0.0552 594.8153)" gradientUnits="userSpaceOnUse"> <stop offset="0.1659" style="stop-color:#1D436F"></stop> <stop offset="0.245" style="stop-color:#1A606C"></stop> <stop offset="0.4739" style="stop-color:#3AAA35"></stop> <stop offset="0.4979" style="stop-color:#47AC35"></stop> <stop offset="0.7182" style="stop-color:#93C12D"></stop> <stop offset="0.8246" style="stop-color:#AAC929"></stop> </radialGradient> <polygon fill="url(#SVGID_38_)" points="619.951,335.59 619.951,328.822 613.844,328.822 613.844,335.573 607.091,335.573 607.091,341.678 613.844,341.678 613.844,348.447 619.951,348.447 619.951,341.688 626.705,341.688 626.705,335.59 "></polygon> <radialGradient id="SVGID_39_" cx="602.2" cy="260.9475" r="141.1998" gradientTransform="matrix(1 0 0 -0.9993 -0.0552 594.8153)" gradientUnits="userSpaceOnUse"> <stop offset="0.1659" style="stop-color:#1D436F"></stop> <stop offset="0.245" style="stop-color:#1A606C"></stop> <stop offset="0.4739" style="stop-color:#3AAA35"></stop> <stop offset="0.4979" style="stop-color:#47AC35"></stop> <stop offset="0.7182" style="stop-color:#93C12D"></stop> <stop offset="0.8246" style="stop-color:#AAC929"></stop> </radialGradient> <polygon fill="url(#SVGID_39_)" points="645.695,335.59 645.695,328.822 639.593,328.822 639.593,335.573 632.839,335.573 632.839,341.678 639.587,341.678 639.587,348.447 645.689,348.447 645.689,341.688 652.453,341.688 652.453,335.59 "></polygon> <radialGradient id="SVGID_40_" cx="602.2244" cy="260.9475" r="141.1521" gradientTransform="matrix(1 0 0 -0.9993 -0.0552 594.8153)" gradientUnits="userSpaceOnUse"> <stop offset="0.1659" style="stop-color:#1D436F"></stop> <stop offset="0.245" style="stop-color:#1A606C"></stop> <stop offset="0.4739" style="stop-color:#3AAA35"></stop> <stop offset="0.4979" style="stop-color:#47AC35"></stop> <stop offset="0.7182" style="stop-color:#93C12D"></stop> <stop offset="0.8246" style="stop-color:#AAC929"></stop> </radialGradient> <polygon fill="url(#SVGID_40_)" points="671.443,335.59 671.443,328.822 665.341,328.822 665.341,335.573 658.587,335.573 658.587,341.678 665.335,341.678 665.335,348.447 671.443,348.447 671.443,341.688 678.195,341.688 678.195,335.59 "></polygon> <radialGradient id="SVGID_41_" cx="602.2166" cy="260.9475" r="141.1803" gradientTransform="matrix(1 0 0 -0.9993 -0.0552 594.8153)" gradientUnits="userSpaceOnUse"> <stop offset="0.1659" style="stop-color:#1D436F"></stop> <stop offset="0.245" style="stop-color:#1A606C"></stop> <stop offset="0.4739" style="stop-color:#3AAA35"></stop> <stop offset="0.4979" style="stop-color:#47AC35"></stop> <stop offset="0.7182" style="stop-color:#93C12D"></stop> <stop offset="0.8246" style="stop-color:#AAC929"></stop> </radialGradient> <polygon fill="url(#SVGID_41_)" points="697.191,335.59 697.191,328.822 691.089,328.822 691.089,335.573 684.332,335.573 684.332,341.678 691.089,341.678 691.089,348.447 697.188,348.447 697.188,341.688 703.943,341.688 703.943,335.59 "></polygon> </g> <g> <radialGradient id="SVGID_42_" cx="602.1912" cy="260.9524" r="141.2437" gradientTransform="matrix(1 0 0 -0.9993 -0.0552 594.8153)" gradientUnits="userSpaceOnUse"> <stop offset="0.1659" style="stop-color:#1D436F"></stop> <stop offset="0.245" style="stop-color:#1A606C"></stop> <stop offset="0.4739" style="stop-color:#3AAA35"></stop> <stop offset="0.4979" style="stop-color:#47AC35"></stop> <stop offset="0.7182" style="stop-color:#93C12D"></stop> <stop offset="0.8246" style="stop-color:#AAC929"></stop> </radialGradient> <polygon fill="url(#SVGID_42_)" points="632.803,355.221 632.803,348.452 626.699,348.452 626.699,355.213 619.941,355.213 619.941,361.311 626.695,361.311 626.695,368.073 632.796,368.073 632.796,361.32 639.557,361.32 639.557,355.221 "></polygon> <radialGradient id="SVGID_43_" cx="602.1746" cy="260.9524" r="141.2618" gradientTransform="matrix(1 0 0 -0.9993 -0.0552 594.8153)" gradientUnits="userSpaceOnUse"> <stop offset="0.1659" style="stop-color:#1D436F"></stop> <stop offset="0.245" style="stop-color:#1A606C"></stop> <stop offset="0.4739" style="stop-color:#3AAA35"></stop> <stop offset="0.4979" style="stop-color:#47AC35"></stop> <stop offset="0.7182" style="stop-color:#93C12D"></stop> <stop offset="0.8246" style="stop-color:#AAC929"></stop> </radialGradient> <polygon fill="url(#SVGID_43_)" points="658.566,355.221 658.566,348.452 652.466,348.452 652.466,355.213 645.699,355.213 645.699,361.311 652.466,361.311 652.466,368.073 658.566,368.073 658.566,361.32 665.322,361.32 665.322,355.221 "></polygon> </g> <radialGradient id="SVGID_44_" cx="602.1101" cy="260.9231" r="141.2876" gradientTransform="matrix(1 0 0 -0.9993 -0.0552 594.8153)" gradientUnits="userSpaceOnUse"> <stop offset="0.1659" style="stop-color:#1D436F"></stop> <stop offset="0.245" style="stop-color:#1A606C"></stop> <stop offset="0.4739" style="stop-color:#3AAA35"></stop> <stop offset="0.4979" style="stop-color:#47AC35"></stop> <stop offset="0.7182" style="stop-color:#93C12D"></stop> <stop offset="0.8246" style="stop-color:#AAC929"></stop> </radialGradient> <polygon fill="url(#SVGID_44_)" points="774.412,257.069 774.412,250.303 768.311,250.303 768.311,257.059 761.546,257.059 761.546,263.157 768.311,263.157 768.311,269.925 774.408,269.925 774.408,263.17 781.173,263.17 781.173,257.069 "></polygon> </g>
</g>
</svg>
