<?xml version="1.0" standalone="no"?>
<!DOCTYPE svg PUBLIC "-//W3C//DTD SVG 20010904//EN"
 "http://www.w3.org/TR/2001/REC-SVG-20010904/DTD/svg10.dtd">
<svg version="1.0" xmlns="http://www.w3.org/2000/svg"
 width="2210.000000pt" height="2210.000000pt" viewBox="0 0 2210.000000 2210.000000"
 preserveAspectRatio="xMidYMid meet">
<metadata>
Created by potrace 1.11, written by Peter Selinger 2001-2013
</metadata>
<g transform="translate(0.000000,2210.000000) scale(0.100000,-0.100000)"
fill="#000000" stroke="none">
<path d="M12700 21143 c-6 -27 -95 -367 -196 -758 -102 -390 -186 -718 -187
-729 -2 -16 16 -23 123 -51 69 -18 127 -31 128 -30 2 2 70 260 152 573 155
595 160 616 165 610 1 -2 29 -293 61 -648 31 -355 59 -647 61 -649 2 -3 51
-17 110 -33 85 -22 110 -25 120 -15 6 6 174 250 372 541 199 291 361 524 361
518 0 -7 -67 -272 -150 -589 -82 -318 -150 -582 -150 -588 0 -9 249 -80 255
-73 3 4 393 1509 397 1533 3 17 -16 25 -185 69 -103 27 -189 47 -191 45 -1 -2
-166 -251 -366 -552 -199 -301 -364 -546 -366 -544 -3 2 -29 298 -60 658 -30
360 -59 657 -62 660 -6 6 -358 99 -373 99 -4 0 -12 -21 -19 -47z"/>
<path d="M10905 20900 c-120 -19 -196 -52 -262 -113 -72 -66 -88 -106 -88
-217 0 -114 17 -153 94 -222 62 -56 144 -88 346 -134 234 -54 295 -93 295
-189 0 -40 -5 -52 -33 -80 -56 -56 -195 -79 -306 -51 -101 26 -158 79 -168
156 l-6 40 -130 0 -130 0 6 -55 c23 -228 247 -369 557 -352 219 13 368 88 438
222 24 44 27 61 27 150 0 91 -3 104 -27 146 -59 100 -148 149 -359 199 -209
50 -264 69 -309 107 -35 30 -40 40 -40 77 0 79 64 117 198 117 126 1 191 -29
225 -103 21 -46 24 -48 63 -48 22 0 82 -3 133 -7 l92 -6 -6 39 c-19 108 -104
222 -201 272 -93 48 -282 71 -409 52z"/>
<path d="M10160 20856 l-85 -11 -90 -460 c-89 -448 -92 -459 -107 -430 -9 17
-98 208 -198 425 -100 217 -183 396 -184 397 -3 3 -270 -28 -274 -32 -2 -1
121 -251 273 -555 l276 -552 32 5 c18 3 81 11 140 18 79 9 110 16 115 27 3 8
67 278 142 598 l136 584 -45 -1 c-25 -1 -84 -7 -131 -13z"/>
<path d="M7353 20703 c-62 -25 -113 -48 -113 -52 0 -3 49 -125 109 -271 59
-146 108 -266 107 -267 -1 -1 -30 9 -63 22 -124 50 -254 41 -402 -30 -263
-126 -336 -440 -181 -772 21 -45 52 -102 70 -128 79 -115 212 -210 328 -234
150 -31 319 10 448 110 65 50 101 101 123 175 l17 58 29 -70 29 -71 113 46
c62 24 112 48 111 52 -37 98 -605 1479 -608 1478 -3 0 -56 -20 -117 -46z m80
-746 c86 -51 150 -133 203 -262 26 -63 28 -82 29 -185 0 -110 -1 -117 -31
-170 -79 -139 -252 -196 -392 -129 -192 93 -313 432 -219 615 32 63 93 117
161 144 74 29 186 23 249 -13z"/>
<path d="M8475 20611 c-186 -53 -322 -191 -381 -387 -27 -88 -25 -255 5 -359
65 -233 201 -384 395 -440 93 -27 257 -17 361 22 45 17 101 43 125 58 134 84
229 247 230 393 0 37 -3 43 -17 38 -10 -3 -58 -15 -108 -27 -101 -25 -115 -32
-115 -63 0 -38 -47 -122 -86 -154 -94 -78 -244 -99 -346 -49 -31 15 -71 44
-89 64 -39 45 -95 161 -83 172 5 5 188 53 407 107 219 55 403 102 408 105 16
10 -17 132 -58 217 -28 58 -58 97 -118 158 -84 85 -147 123 -246 149 -73 20
-210 18 -284 -4z m251 -212 c78 -37 197 -192 161 -210 -7 -3 -135 -37 -286
-74 -227 -56 -275 -66 -283 -54 -12 18 -3 136 13 174 70 161 245 234 395 164z"/>
<path d="M14726 20025 c-143 -40 -295 -161 -371 -298 -48 -87 -93 -227 -101
-315 -18 -193 69 -373 236 -485 144 -97 341 -133 488 -88 79 24 178 86 222
139 l30 37 -77 35 c-147 67 -133 66 -192 26 -100 -67 -180 -70 -301 -10 -107
54 -160 131 -167 244 -5 77 24 187 48 182 8 -2 181 -79 385 -173 204 -93 374
-169 378 -169 11 0 65 117 82 181 23 87 23 236 0 314 -56 189 -201 330 -392
380 -70 18 -201 18 -268 0z m259 -212 c105 -33 185 -151 185 -270 0 -48 -18
-133 -29 -133 -3 0 -126 54 -273 121 l-267 121 14 27 c17 34 92 104 135 126
69 36 139 38 235 8z"/>
<path d="M6024 19621 c-165 -47 -357 -185 -429 -307 -36 -61 -59 -158 -51
-218 6 -58 36 -146 48 -146 5 0 56 27 113 61 100 58 104 62 97 88 -4 14 -7 47
-6 72 2 85 85 173 214 226 101 42 175 22 218 -58 39 -74 14 -128 -101 -216
-170 -130 -278 -226 -316 -283 -71 -107 -76 -211 -15 -327 58 -110 152 -173
269 -181 181 -11 418 141 507 326 l30 64 22 -21 c46 -43 129 -46 205 -6 35 17
131 104 131 117 0 5 -18 41 -41 78 l-41 69 -37 -21 c-24 -14 -45 -19 -62 -15
-28 7 -25 3 -225 347 -82 140 -165 271 -185 291 -74 74 -212 98 -345 60z m382
-611 c48 -83 54 -101 54 -150 0 -43 -7 -67 -30 -106 -73 -128 -256 -216 -350
-167 -52 27 -80 76 -80 138 0 74 37 124 174 233 63 51 125 105 138 121 12 16
27 29 32 28 4 -2 32 -45 62 -97z"/>
<path d="M15850 19401 c-163 -52 -309 -177 -393 -338 -132 -253 -114 -478 54
-657 142 -152 343 -228 518 -197 84 15 193 67 235 110 16 17 28 33 25 35 -2 2
-46 31 -98 64 l-95 60 -55 -31 c-76 -43 -160 -45 -241 -5 -182 90 -239 243
-159 429 16 37 26 48 38 44 8 -3 172 -105 364 -227 l349 -221 23 29 c37 46 94
168 110 236 19 80 19 217 0 288 -48 181 -195 328 -384 384 -74 22 -219 20
-291 -3z m295 -219 c101 -48 155 -125 163 -233 4 -62 -13 -151 -36 -187 -6 -9
-72 28 -255 144 -136 86 -247 162 -247 169 0 7 18 29 41 50 99 89 221 110 334
57z"/>
<path d="M17130 18949 c-52 -66 -100 -127 -107 -136 -10 -13 -22 -7 -87 46
l-75 61 -61 -75 c-34 -42 -61 -77 -59 -79 2 -1 37 -29 76 -60 l73 -58 -29 -37
c-16 -20 -117 -146 -225 -281 -217 -271 -272 -361 -264 -428 9 -60 37 -110 96
-170 51 -50 180 -143 199 -142 4 1 33 34 65 74 l56 73 -59 42 c-35 25 -67 57
-76 77 -15 31 -15 37 -1 67 9 18 111 153 227 300 l212 267 87 -70 c48 -39 90
-70 94 -70 6 0 96 111 111 136 4 6 -30 40 -78 78 -47 37 -85 72 -85 77 0 6 45
66 100 134 55 68 100 128 100 133 0 8 -183 162 -192 162 -2 0 -46 -54 -98
-121z"/>
<path d="M4961 18915 c-128 -36 -242 -128 -298 -241 -31 -64 -37 -88 -41 -160
l-5 -84 -54 70 -54 70 -68 -52 c-36 -29 -79 -63 -95 -75 -24 -20 -26 -24 -14
-41 46 -65 702 -892 707 -892 3 0 50 34 103 76 l96 75 -225 287 c-124 158
-235 307 -247 332 -15 33 -21 65 -21 120 0 87 20 133 82 192 88 83 175 100
254 49 63 -41 101 -84 329 -376 112 -143 209 -266 216 -274 10 -12 29 -1 113
64 56 44 97 83 93 89 -22 36 -493 630 -531 669 -91 95 -223 135 -340 102z"/>
<path d="M10910 16885 c0 -1868 0 -1875 20 -1875 20 0 20 -7 20 -500 l0 -500
105 0 105 0 0 -590 0 -590 44 0 43 0 7 -90 7 -90 232 -2 232 -3 3 -82 3 -83
284 0 285 0 0 -139 0 -140 -109 -62 -109 -62 -7 -134 c-6 -108 -4 -138 6 -148
8 -7 81 -52 162 -99 141 -83 155 -89 290 -122 78 -19 159 -39 180 -45 l37 -10
0 -314 0 -315 3016 0 3017 0 -7 193 c-4 105 -11 260 -17 342 -130 1905 -942
3684 -2298 5035 -1018 1013 -2267 1718 -3656 2064 -561 140 -1073 208 -1742
231 l-153 5 0 -1875z m3010 -1487 l0 -363 -720 -450 c-688 -430 -719 -451
-698 -465 11 -8 334 -211 717 -451 l696 -437 3 -356 c1 -207 -2 -356 -7 -356
-5 0 -456 279 -1002 619 l-994 619 -2 374 -3 373 1003 627 c551 346 1003 628
1005 628 1 0 2 -163 2 -362z m2375 -588 l490 -307 2 -369 3 -369 -996 -620
c-547 -341 -1002 -621 -1010 -623 -12 -3 -14 48 -14 351 l0 355 708 442 c389
244 713 448 720 454 9 9 -133 103 -625 411 -351 219 -675 423 -720 452 l-83
53 0 353 c0 195 2 356 5 359 3 3 236 -139 518 -315 282 -177 733 -459 1002
-627z"/>
<path d="M17324 18038 c-154 -156 -294 -301 -311 -323 -61 -81 -86 -143 -91
-233 -4 -79 -3 -86 31 -155 49 -99 132 -188 210 -227 75 -37 166 -53 231 -41
25 5 46 6 46 3 0 -4 -24 -30 -52 -59 l-53 -53 88 -88 87 -87 410 410 410 410
-90 90 -90 89 -272 -270 c-189 -187 -287 -276 -319 -292 -114 -55 -207 -36
-306 63 -89 89 -101 149 -51 250 12 24 136 157 304 325 l284 286 -93 92 -93
92 -280 -282z"/>
<path d="M3975 18000 c-117 -21 -210 -74 -302 -173 -170 -182 -190 -440 -52
-674 47 -79 170 -201 254 -251 182 -108 347 -119 524 -35 99 47 221 167 275
270 83 162 82 345 -4 485 l-16 27 -84 -84 -83 -84 16 -52 c36 -109 11 -202
-79 -295 -112 -115 -273 -126 -407 -28 -27 19 -47 39 -45 44 2 6 131 143 288
306 157 164 286 302 288 309 4 17 -96 106 -166 149 -119 72 -287 108 -407 86z
m180 -244 c28 -13 61 -32 73 -42 l24 -20 -201 -209 c-111 -116 -205 -211 -210
-213 -14 -5 -70 88 -86 142 -19 63 -19 99 0 163 51 173 235 255 400 179z"/>
<path d="M2709 17354 c-41 -52 -75 -98 -77 -103 -3 -8 169 -151 181 -151 5 0
135 162 151 188 5 8 2 18 -7 25 -9 7 -51 40 -95 74 l-79 62 -74 -95z"/>
<path d="M17955 16830 c-346 -259 -633 -474 -637 -478 -7 -7 138 -208 149
-206 2 1 105 76 228 168 122 91 225 166 228 166 3 0 1 -15 -4 -32 -36 -128 27
-312 151 -438 185 -190 476 -179 749 28 315 240 359 593 106 848 -86 87 -145
116 -244 124 l-73 5 61 44 c33 25 61 47 61 49 0 6 -139 192 -143 192 -1 0
-285 -212 -632 -470z m685 24 c74 -22 169 -116 194 -192 53 -160 -42 -347
-235 -464 -87 -53 -154 -71 -243 -66 -81 4 -133 26 -182 75 -167 167 -114 409
124 566 135 90 234 113 342 81z"/>
<path d="M3048 17071 l-77 -99 509 -402 c280 -220 523 -417 539 -436 43 -49
41 -83 -9 -138 -22 -24 -40 -46 -40 -49 0 -4 35 -34 78 -68 l77 -61 51 56 c95
104 131 214 104 312 -28 100 -66 135 -613 567 -285 224 -523 410 -530 412 -6
2 -47 -40 -89 -94z"/>
<path d="M3034 10703 c9 -243 24 -471 42 -638 87 -831 305 -1645 639 -2390
949 -2117 2777 -3711 4990 -4351 105 -30 196 -57 203 -59 9 -4 12 762 12 3805
l0 3810 -2946 0 -2946 0 6 -177z m5287 -1495 l170 -177 -1203 -1224 c-662
-674 -1206 -1224 -1210 -1223 -9 2 -1448 1548 -1448 1556 0 4 136 132 303 286
166 153 323 298 348 321 l46 43 373 -390 c206 -215 377 -389 381 -388 4 2 400
385 881 852 l873 849 158 -164 c87 -90 234 -244 328 -341z"/>
<path d="M19600 8997 c-161 -45 -274 -216 -317 -480 -36 -217 34 -389 189
-467 34 -16 63 -28 65 -26 3 2 19 58 37 124 l32 119 -34 19 c-19 10 -47 36
-61 58 -23 35 -26 49 -25 120 2 128 53 244 124 281 61 31 147 9 175 -46 20
-38 17 -134 -10 -344 -28 -221 -8 -333 75 -416 67 -67 140 -94 255 -94 81 0
95 3 144 30 63 35 112 89 152 167 75 148 87 352 29 486 l-19 42 25 0 c101 0
174 107 174 256 l0 63 -55 15 c-111 33 -109 33 -123 -18 -9 -36 -17 -47 -38
-52 -17 -5 -130 21 -347 80 -177 47 -340 88 -362 91 -22 2 -60 -1 -85 -8z
m462 -353 c50 -14 104 -32 119 -40 73 -37 117 -156 100 -266 -6 -34 -25 -91
-42 -126 -53 -108 -134 -140 -224 -87 -79 46 -94 115 -70 308 9 75 15 159 14
186 -2 28 0 51 4 51 4 0 49 -12 99 -26z"/>
<path d="M2368 8971 c-120 -39 -189 -98 -239 -206 -42 -90 -49 -167 -39 -430
13 -321 4 -391 -62 -452 -58 -54 -175 -70 -247 -34 -88 45 -157 162 -187 316
-15 75 -16 98 -5 159 20 116 81 196 184 239 34 14 47 25 44 36 -40 149 -74
251 -83 251 -7 0 -49 -19 -94 -41 -257 -129 -351 -387 -264 -728 89 -354 337
-569 602 -522 154 27 272 114 334 246 l33 70 0 345 c0 343 0 345 24 393 60
122 219 143 312 40 91 -99 135 -296 94 -414 -19 -52 -63 -101 -125 -137 -25
-14 -47 -27 -48 -28 -9 -6 74 -264 84 -264 6 0 43 16 82 35 126 63 216 185
248 333 56 267 -78 615 -286 747 -104 65 -245 83 -362 46z"/>
<path d="M19183 7796 c-131 -42 -248 -191 -276 -352 -14 -83 1 -178 42 -257
17 -33 25 -57 18 -54 -6 3 -42 17 -79 33 -38 15 -69 26 -71 23 -2 -2 -24 -52
-49 -110 l-45 -106 533 -228 c294 -126 536 -226 538 -224 15 16 95 224 89 230
-5 5 -151 69 -325 143 -175 74 -338 149 -363 166 -145 100 -167 296 -46 420
37 39 55 49 92 55 72 11 141 -12 511 -171 187 -80 341 -144 343 -142 8 9 98
229 94 232 -14 13 -793 337 -829 345 -60 14 -126 13 -177 -3z"/>
<path d="M2410 7464 c-84 -18 -236 -91 -311 -150 -157 -124 -238 -319 -210
-503 33 -215 164 -404 334 -485 154 -74 312 -72 497 4 251 104 400 303 400
535 0 104 -19 177 -76 294 -123 249 -361 364 -634 305z m323 -268 c66 -32 111
-80 145 -156 76 -164 -16 -354 -223 -456 -222 -109 -433 -65 -518 110 -35 70
-43 138 -27 205 56 233 410 402 623 297z"/>
<path d="M18674 6605 c-179 -39 -338 -188 -400 -375 -26 -76 -26 -235 0 -310
35 -105 78 -173 163 -257 68 -68 98 -90 185 -132 126 -62 197 -81 304 -81 234
0 437 161 519 413 24 76 27 96 23 184 -3 68 -12 115 -27 155 -28 73 -109 184
-123 170 -5 -5 -36 -52 -67 -103 l-57 -93 30 -50 c28 -44 31 -57 31 -130 0
-91 -20 -144 -83 -217 -54 -63 -122 -93 -212 -93 -73 1 -181 31 -196 55 -3 5
94 172 215 372 l221 362 -23 18 c-46 36 -185 96 -259 111 -92 19 -161 19 -244
1z m185 -236 c24 -7 45 -19 48 -26 6 -15 -288 -502 -303 -503 -17 0 -89 82
-116 132 -34 65 -33 184 4 253 24 45 61 86 111 125 51 38 164 47 256 19z"/>
<path d="M3256 6495 c-38 -24 -73 -48 -78 -53 -6 -6 10 -40 38 -86 40 -65 45
-79 33 -90 -8 -7 -193 -124 -411 -259 l-397 -247 66 -105 c36 -58 70 -105 75
-105 5 0 190 113 410 250 220 138 403 250 408 250 4 0 31 -38 59 -85 29 -47
57 -85 63 -85 6 0 43 21 84 46 84 52 83 38 7 157 -24 37 -41 72 -39 76 10 16
125 81 153 87 44 9 92 -30 132 -108 l33 -66 82 51 c44 28 82 51 84 52 14 9
-90 187 -142 243 -104 113 -232 113 -417 1 -38 -23 -71 -40 -73 -38 -1 2 -24
39 -50 82 -27 42 -49 77 -50 76 0 0 -32 -20 -70 -44z"/>
<path d="M3950 5899 c-74 -54 -138 -98 -142 -97 -4 2 -31 35 -61 75 l-54 72
-76 -56 -76 -57 36 -50 c20 -28 45 -63 57 -79 12 -16 16 -30 10 -36 -5 -4
-130 -97 -279 -207 -308 -227 -378 -289 -395 -355 -26 -93 21 -205 138 -330
l64 -68 74 56 c41 30 74 59 74 63 0 4 -9 15 -20 25 -34 31 -80 107 -80 132 0
13 7 35 16 48 15 23 540 421 567 430 7 2 33 -26 60 -63 26 -37 56 -78 66 -91
l18 -24 77 58 c50 38 73 61 68 69 -5 6 -36 48 -70 92 l-61 82 126 93 c70 52
133 99 141 105 13 9 2 28 -62 112 -42 56 -78 102 -79 102 -1 -1 -63 -46 -137
-101z"/>
<path d="M17502 5862 l-89 -108 444 -364 c244 -200 464 -383 488 -408 51 -51
85 -115 85 -158 0 -79 -109 -214 -184 -228 -63 -12 -147 22 -241 100 -31 25
-60 44 -65 42 -11 -4 -170 -198 -170 -208 0 -11 116 -102 170 -133 140 -80
283 -88 413 -24 55 27 92 55 144 110 127 134 186 257 187 393 0 72 -4 88 -36
155 -20 41 -59 100 -89 133 -29 32 -251 220 -493 418 -243 199 -448 367 -457
375 -15 13 -26 2 -107 -95z"/>
<path d="M3823 4801 c-156 -291 -283 -532 -283 -537 0 -5 42 -51 93 -101 l92
-92 378 225 c208 124 380 224 381 222 2 -1 -100 -171 -225 -377 l-228 -374 86
-93 c47 -52 90 -94 95 -94 14 0 1078 551 1078 559 0 3 -40 46 -88 94 l-88 88
-370 -209 c-451 -255 -418 -237 -409 -220 5 7 109 175 232 374 122 198 223
365 223 370 0 5 -40 49 -89 98 l-88 88 -379 -224 c-209 -124 -381 -223 -383
-222 -2 2 98 175 223 386 l227 382 -93 93 c-51 51 -95 93 -98 93 -3 0 -132
-238 -287 -529z"/>
<path d="M16790 4465 c-56 -47 -75 -72 -108 -142 -23 -49 -27 -71 -27 -148 0
-49 4 -101 8 -115 6 -18 -5 -10 -40 30 -26 30 -59 67 -73 82 l-25 28 -91 -77
c-89 -75 -91 -78 -75 -98 48 -61 723 -855 730 -859 4 -3 51 31 105 76 85 71
95 83 83 97 -155 180 -363 431 -388 467 -63 93 -91 210 -69 294 16 64 64 131
126 176 30 21 54 41 54 44 0 11 -143 175 -155 178 -7 2 -31 -13 -55 -33z"/>
<path d="M5391 3884 c-235 -63 -451 -315 -491 -572 -45 -285 186 -571 501
-621 118 -19 284 26 371 101 l28 23 -95 68 c-53 37 -99 67 -103 67 -4 0 -29
-11 -56 -25 -101 -51 -223 -25 -325 70 -62 58 -94 128 -93 210 0 63 29 157 61
196 l17 22 336 -242 c185 -132 342 -243 350 -246 15 -5 77 75 114 147 60 118
81 297 49 418 -48 182 -194 327 -384 384 -68 20 -206 20 -280 0z m262 -210
c60 -20 139 -92 168 -152 31 -64 31 -164 0 -245 -13 -33 -28 -57 -35 -55 -24
6 -476 333 -476 344 0 26 98 96 160 115 43 13 135 10 183 -7z"/>
<path d="M15901 3725 c-133 -38 -287 -161 -344 -276 -83 -169 -76 -379 19
-560 117 -222 317 -359 524 -359 152 0 286 58 413 179 112 107 167 229 167
370 0 46 -22 157 -34 168 -3 3 -50 -23 -103 -59 l-98 -65 3 -75 c3 -65 0 -83
-22 -126 -29 -58 -89 -112 -164 -149 -72 -35 -168 -36 -238 -2 -51 24 -154
116 -154 137 0 7 157 117 350 244 192 128 350 237 350 241 0 20 -78 127 -130
177 -68 65 -143 112 -226 141 -78 29 -236 35 -313 14z m237 -230 c48 -26 122
-90 122 -105 0 -9 -489 -335 -494 -329 -23 26 -40 86 -44 154 -4 68 -1 89 18
133 29 67 114 146 178 167 69 22 158 14 220 -20z"/>
<path d="M7274 3377 c-31 -70 -604 -1451 -601 -1452 1 -1 53 -23 116 -49 89
-37 116 -45 122 -34 5 7 41 93 81 190 l73 177 97 40 c54 22 100 36 103 32 2
-5 28 -149 56 -322 29 -173 57 -319 63 -325 16 -17 265 -118 272 -111 4 3 -30
196 -75 428 -45 232 -78 425 -74 429 4 4 64 28 133 54 69 27 194 75 279 109
l154 60 -129 54 c-71 29 -138 56 -149 59 -12 3 -136 -44 -315 -120 -162 -68
-296 -123 -298 -121 -2 2 74 189 168 415 94 227 168 416 163 420 -4 5 -57 28
-116 53 l-108 46 -15 -32z"/>
<path d="M6407 3328 c-139 -242 -537 -971 -533 -975 8 -9 219 -123 221 -120 1
1 64 115 140 252 159 289 178 319 240 373 122 107 251 118 386 30 34 -21 62
-38 63 -36 2 2 29 50 60 107 65 118 67 109 -24 155 -59 30 -91 37 -167 37 -77
0 -156 -21 -207 -56 -21 -14 -40 -25 -42 -23 -1 2 19 43 47 92 27 49 49 90 49
92 0 2 -179 102 -202 112 -3 2 -18 -16 -31 -40z"/>
<path d="M14814 3092 c-155 -55 -240 -138 -284 -277 -18 -58 -17 -57 -61 -25
-85 61 -225 62 -352 2 -117 -56 -184 -134 -218 -256 l-17 -61 -26 60 c-14 33
-29 67 -34 76 -6 14 -21 10 -114 -29 -60 -26 -108 -51 -108 -57 0 -11 446
-1045 455 -1053 4 -4 222 83 232 92 2 2 -60 149 -138 327 -77 178 -148 352
-156 386 -40 161 61 310 217 321 72 5 114 -17 158 -83 16 -24 98 -203 181
-397 84 -194 156 -356 160 -360 8 -9 231 83 231 95 0 4 -65 157 -144 340 -78
183 -149 356 -156 386 -17 70 -7 144 25 192 30 46 110 94 181 110 72 16 129
-10 177 -80 19 -28 103 -211 188 -406 84 -195 158 -355 165 -355 10 0 213 86
221 94 4 4 -311 735 -347 805 -29 58 -95 128 -145 154 -29 15 -64 22 -125 24
-74 3 -96 0 -166 -25z"/>
<path d="M9376 2698 c-8 -35 -206 -1561 -203 -1564 4 -4 248 -36 251 -32 2 1
13 82 25 178 30 245 21 222 111 290 43 33 82 60 87 60 4 0 69 -133 143 -296
74 -163 140 -298 145 -300 11 -4 299 -43 301 -41 1 1 -86 179 -192 396 -107
217 -190 397 -186 400 62 42 481 355 478 358 -3 4 -276 43 -297 43 -3 0 -120
-89 -260 -199 -140 -109 -255 -195 -257 -190 -2 5 22 205 53 445 32 239 55
437 52 440 -5 6 -189 33 -224 34 -15 0 -24 -7 -27 -22z"/>
<path d="M8314 2496 c-152 -37 -238 -148 -238 -306 1 -149 84 -233 391 -389
161 -82 223 -149 209 -225 -16 -82 -92 -117 -217 -98 -179 26 -278 108 -279
232 l0 45 -117 32 c-64 18 -120 30 -124 27 -4 -2 -10 -30 -14 -61 -29 -252
219 -460 571 -480 224 -13 374 72 425 239 37 122 15 218 -70 306 -52 53 -111
91 -278 176 -199 103 -258 164 -233 242 20 61 92 82 200 60 81 -17 164 -60
194 -100 11 -14 23 -47 26 -73 l5 -46 125 -33 c68 -18 127 -31 130 -28 3 3 4
38 3 76 -3 128 -75 241 -202 316 -141 83 -366 122 -507 88z"/>
<path d="M12950 2416 c-25 -7 -62 -20 -83 -29 -49 -21 -142 -110 -175 -167
-14 -25 -27 -47 -28 -48 -1 -2 -19 14 -38 36 -118 130 -401 117 -542 -24 -24
-23 -55 -66 -70 -96 -30 -59 -36 -55 -49 34 -11 73 -8 72 -137 48 -97 -18
-115 -24 -112 -38 2 -10 52 -264 109 -566 58 -303 107 -552 110 -554 6 -7 245
39 245 47 0 4 -29 160 -65 346 -38 197 -66 368 -66 406 -1 148 93 255 235 266
76 7 120 -11 155 -62 37 -54 46 -89 122 -491 40 -208 73 -380 74 -381 2 -4
245 44 249 48 1 2 -28 162 -65 354 -69 353 -80 451 -57 516 32 95 102 141 222
146 93 5 130 -11 166 -69 29 -47 33 -64 112 -473 39 -203 74 -374 79 -379 6
-7 233 29 246 39 4 3 -156 827 -168 864 -37 114 -99 188 -186 221 -63 23 -209
26 -283 6z"/>
<path d="M10820 2163 c-192 -37 -326 -161 -346 -320 l-7 -53 130 0 130 0 6 35
c9 53 44 95 106 124 48 22 69 26 152 26 82 0 102 -4 144 -25 54 -28 85 -75 85
-130 0 -79 -56 -122 -180 -140 -343 -50 -418 -69 -497 -129 -32 -25 -58 -56
-78 -96 -28 -54 -30 -67 -30 -159 1 -89 4 -107 27 -151 53 -101 148 -163 285
-187 133 -22 328 21 433 96 27 20 52 36 54 36 3 0 7 -13 11 -29 7 -35 49 -75
94 -90 44 -14 136 -14 200 1 l51 11 0 89 0 88 -43 0 c-76 0 -74 -11 -82 390
-7 399 -10 419 -76 494 -101 114 -339 164 -569 119z m390 -713 c0 -127 -10
-160 -65 -213 -53 -51 -128 -77 -223 -77 -102 0 -149 14 -194 60 -34 33 -38
43 -38 86 0 128 71 174 320 210 63 9 129 22 145 29 55 24 55 24 55 -95z"/>
</g>
</svg>
